#N canvas 645 138 966 650 12;
#X declare -lib mrpeach;
#X obj 183 497 dac~;
#X obj 432 271 soundfiler;
#N canvas 0 22 450 300 (subpatch) 0;
#X array Sound1 1.16317e+06 float 2;
#X coords 0 1 1.16317e+06 -1 200 140 1;
#X restore 430 47 graph;
#X floatatom 433 302 15 0 0 0 - - -;
#X obj 186 459 *~;
#X obj 246 436 hsl 100 20 0 1 0 0 empty empty empty -2 -8 0 10 -204786
-1 -1 2069 1;
#X text 355 438 volume;
#X floatatom 287 459 5 0 0 0 - - -;
#X obj 432 208 loadbang;
#X obj 186 400 tabread4~ Sound1;
#X obj 222 174 t b f;
#X floatatom 308 146 5 0 0 0 - - -;
#X obj 253 248 * 44100;
#X obj 186 249 /;
#X obj 186 278 phasor~;
#X obj 186 370 +~ 0;
#X obj 186 320 *~ 44100;
#X obj 189 107 hsl 100 20 0 1 0 0 empty empty empty -2 -8 0 10 -204786
-1 -1 304 1;
#X floatatom 222 127 5 0 0 0 - - -;
#X floatatom 186 208 5 0 0 0 - - -;
#X obj 186 48 loadbang;
#X msg 308 78 26.8;
#X msg 366 77 0;
#X msg 186 78 0.5;
#X obj 308 48 bng 15 250 50 0 empty empty empty 17 7 0 10 -262144 -1
-1;
#X text 304 27 Start;
#X text 367 27 Stop;
#X obj 366 48 bng 15 250 50 0 empty empty empty 17 7 0 10 -262144 -1
-1;
#X floatatom 71 108 5 0 0 0 - - -;
#X obj 35 30 import mrpeach;
#X msg 432 237 read -resize obama.wav Sound1;
#X floatatom 431 482 5 0 0 0 - - -;
#X obj 438 382 print;
#X floatatom 560 482 5 0 0 0 - - -;
#X floatatom 686 481 5 0 0 0 - - -;
#X obj 686 506 s OSCcontrol3;
#X obj 560 508 s OSCcontrol2;
#X obj 431 510 s OSCcontrol1;
#X obj 71 70 r OSCcontrol1;
#X obj 55 419 r OSCcontrol2;
#X obj 241 3 r OSCcontrol3;
#X floatatom 815 480 5 0 0 0 - - -;
#X obj 815 505 s OSCcontrol4;
#X obj 353 4 r OSCcontrol4;
#X obj 561 427 routeOSC /fader1;
#X obj 686 424 routeOSC /toggle1;
#X obj 815 423 routeOSC /toggle2;
#X obj 487 384 OSCroute /1;
#X obj 431 426 OSCroute /fader5;
#X obj 431 454 OSCroute $f;
#X obj 560 454 OSCroute $f;
#X obj 686 451 OSCroute $f;
#X obj 815 451 OSCroute $f;
#X obj 487 339 dumpOSC 8000;
#X connect 1 0 3 0;
#X connect 4 0 0 0;
#X connect 4 0 0 1;
#X connect 5 0 4 1;
#X connect 5 0 7 0;
#X connect 8 0 30 0;
#X connect 9 0 4 0;
#X connect 10 0 19 0;
#X connect 10 1 13 1;
#X connect 11 0 10 0;
#X connect 11 0 12 0;
#X connect 12 0 16 1;
#X connect 13 0 14 0;
#X connect 14 0 16 0;
#X connect 15 0 9 0;
#X connect 16 0 15 0;
#X connect 17 0 18 0;
#X connect 17 0 19 0;
#X connect 19 0 13 0;
#X connect 20 0 23 0;
#X connect 21 0 11 0;
#X connect 22 0 11 0;
#X connect 23 0 17 0;
#X connect 24 0 21 0;
#X connect 27 0 22 0;
#X connect 30 0 1 0;
#X connect 31 0 37 0;
#X connect 33 0 36 0;
#X connect 34 0 35 0;
#X connect 38 0 17 0;
#X connect 38 0 28 0;
#X connect 39 0 5 0;
#X connect 40 0 24 0;
#X connect 41 0 42 0;
#X connect 43 0 27 0;
#X connect 44 0 50 0;
#X connect 45 0 51 0;
#X connect 46 0 52 0;
#X connect 47 0 44 0;
#X connect 47 0 45 0;
#X connect 47 0 46 0;
#X connect 47 0 48 0;
#X connect 48 0 49 0;
#X connect 49 0 31 0;
#X connect 50 0 33 0;
#X connect 51 0 34 0;
#X connect 52 0 41 0;
#X connect 53 0 32 0;
#X connect 53 0 47 0;
